<svg xmlns="http://www.w3.org/2000/svg" width="194.67" height="48.102" viewBox="0 0 194.67 48.102">
  <g id="Raggruppa_278" data-name="Raggruppa 278" transform="translate(1098.987 -4491)">
    <path id="Tracciato_82" data-name="Tracciato 82" d="M400.622,25.34l-.185.281.185-.283Zm.263-2.585c-1.517-.217-2.742-.382-2.742-.382h-.026a9.755,9.755,0,0,0-8.072,3.844V22.475h-3V47.822h3V36.44c0-3.615.757-6.329,2.2-8.184a6.752,6.752,0,0,1,5.513-2.907h.022q1.422.159,2.134.246c.237.029.822.123.822.123l.545.1v-3Z" transform="translate(-1329.875 4477.609)" fill="#fe5000"/>
    <path id="Tracciato_83" data-name="Tracciato 83" d="M437.921,21.378,449.275,9.083l-3.756,0L430.735,25.095V0h-3.049V34.432h3.049V29.1l5.314-5.739L446.1,34.432h3.782Z" transform="translate(-1354.202 4490.998)" fill="#fe5000"/>
    <path id="Tracciato_84" data-name="Tracciato 84" d="M19.4,45.028H5.779a2.053,2.053,0,0,1-1.235-.554A1.649,1.649,0,0,1,4.157,43.3l0-20.583H.984V43.271A4.374,4.374,0,0,0,2.82,47.058a5.292,5.292,0,0,0,3.137.968h13.91v-3Z" transform="translate(-1098.802 4477.406)" fill="#fe5000"/>
    <path id="Tracciato_85" data-name="Tracciato 85" d="M123.8,9.086l-.112.3-7.928,21.445a2.358,2.358,0,0,1-.355.692.392.392,0,0,1-.125.106,2.343,2.343,0,0,1-.45-.831L103.685,0,100.41.009l11.732,32.149c.631,1.725,1.709,2.78,3.147,2.78h.015c1.432.005,2.5-1.051,3.137-2.772l8.619-23.083Z" transform="translate(-1158.312 4491)" fill="#fe5000"/>
    <path id="Tracciato_86" data-name="Tracciato 86" d="M264.937,22.332a3.232,3.232,0,0,0-2.425-.849,3.469,3.469,0,0,0-3.479,2.812l-8.266,28.586a1.962,1.962,0,0,1-.244.561c-.079.1-.1.091-.1.093s-.041.006-.123-.1a1.925,1.925,0,0,1-.251-.581L241.823,24.3a3.4,3.4,0,0,0-3.4-2.816,3.309,3.309,0,0,0-2.466.854,3.46,3.46,0,0,0-.835,2.5l0,22.447h3.017l0-22.577a.86.86,0,0,1,.1-.478c.047-.061.074-.083.21-.087.066-.02.279.117.457.73l8.062,27.989c.686,2.368,1.833,3.711,3.46,3.715s2.775-1.347,3.462-3.713l8.062-27.991c.181-.613.395-.754.472-.73.138,0,.172.029.219.089a.839.839,0,0,1,.1.476l0,22.577h3.016l.006-22.469a3.447,3.447,0,0,0-.822-2.487" transform="translate(-1238.943 4478.141)" fill="#fe5000"/>
    <path id="Tracciato_87" data-name="Tracciato 87" d="M339.978,38.952a12.165,12.165,0,0,1-5.272,4.821,9.529,9.529,0,0,1-4.29.986A9.119,9.119,0,0,1,323.3,41.9a10.437,10.437,0,0,1-2.492-7.315,10.389,10.389,0,0,1,2.542-7.3,9.065,9.065,0,0,1,7.068-2.88,8.512,8.512,0,0,1,7.262,3.457,12.918,12.918,0,0,1,2.3,7.942Zm.04-17.03V25.97a12.027,12.027,0,0,0-9.713-4.477,12.188,12.188,0,0,0-9.331,3.683,13.2,13.2,0,0,0-3.383,9.46,13.087,13.087,0,0,0,3.515,9.449,12.316,12.316,0,0,0,9.277,3.668h.022a13.242,13.242,0,0,0,9.613-4.155v3.7h3.05V21.922Z" transform="translate(-1288.304 4478.136)" fill="#fe5000"/>
    <path id="Tracciato_88" data-name="Tracciato 88" d="M65.948,41.831a8.938,8.938,0,0,1-6.99,2.929,9.055,9.055,0,0,1-7.058-2.9,10.423,10.423,0,0,1-2.538-7.268A10.436,10.436,0,0,1,51.9,27.314a9.1,9.1,0,0,1,7.058-2.9,8.956,8.956,0,0,1,7.013,2.9,10.492,10.492,0,0,1,2.538,7.274,10.443,10.443,0,0,1-2.561,7.243M68.236,25.25a12.242,12.242,0,0,0-9.277-3.757,12.254,12.254,0,0,0-9.25,3.73,13.082,13.082,0,0,0-3.564,9.411,13.042,13.042,0,0,0,3.564,9.4,12.287,12.287,0,0,0,9.25,3.717h.021A12.208,12.208,0,0,0,68.2,44.047a13.11,13.11,0,0,0,3.522-9.413,13.09,13.09,0,0,0-3.485-9.385" transform="translate(-1125.832 4478.136)" fill="#fe5000"/>
    <path id="Tracciato_89" data-name="Tracciato 89" d="M168.327,32.854a9.561,9.561,0,0,1,19.062,0Zm18.7-7.759h0a13.341,13.341,0,0,0-18.369.126,13.091,13.091,0,0,0-3.564,9.415,12.867,12.867,0,0,0,3.634,9.456,12.727,12.727,0,0,0,9.411,3.66h.022c4.705,0,8.347-1.238,10.813-3.78l.327-.334-2.239-2.132-.321.335A9.114,9.114,0,0,1,182.8,44.07a15.068,15.068,0,0,1-4.636.76,9.544,9.544,0,0,1-6.975-2.6,9.888,9.888,0,0,1-2.88-6.446h22.078l.094-.34a4.669,4.669,0,0,0,.143-1.234,12.393,12.393,0,0,0-3.6-9.112" transform="translate(-1197.029 4478.136)" fill="#fe5000"/>
    <path id="Tracciato_90" data-name="Tracciato 90" d="M1.411,107.707a2.346,2.346,0,0,1,1.737.648,2.665,2.665,0,0,1,.009,3.493,2.344,2.344,0,0,1-1.733.656l-1.411,0L0,107.711Zm-.8,4.274.809,0a1.62,1.62,0,0,0,1.272-.534,1.947,1.947,0,0,0,.469-1.347,1.906,1.906,0,0,0-.481-1.337,1.634,1.634,0,0,0-1.271-.519l-.808,0Z" transform="translate(-1098.213 4426.533)" fill="#fff"/>
    <rect id="Rettangolo_206" data-name="Rettangolo 206" width="0.603" height="4.798" transform="translate(-1093.163 4534.229) rotate(-0.153)" fill="#fff"/>
    <path id="Tracciato_91" data-name="Tracciato 91" d="M20.315,111.515a1.225,1.225,0,0,1-1.241.911,1.927,1.927,0,0,1-1.515-.668,2.636,2.636,0,0,1-.6-1.806,2.5,2.5,0,0,1,.64-1.809,2.138,2.138,0,0,1,1.6-.675,2.048,2.048,0,0,1,.988.226,1.953,1.953,0,0,1,.73.731l-.578.2a1.458,1.458,0,0,0-1.161-.615,1.425,1.425,0,0,0-1.123.544,2.092,2.092,0,0,0-.458,1.409,2.26,2.26,0,0,0,.4,1.391,1.269,1.269,0,0,0,1.069.523,1.143,1.143,0,0,0,.884-.369,1.55,1.55,0,0,0,.333-1.084v-.015l-1.2-.043v-.4l1.792,0,.006,2.372h-.488Z" transform="translate(-1108.365 4426.676)" fill="#fff"/>
    <rect id="Rettangolo_207" data-name="Rettangolo 207" width="0.603" height="4.798" transform="translate(-1086.108 4534.212) rotate(-0.153)" fill="#fff"/>
    <path id="Tracciato_92" data-name="Tracciato 92" d="M33.667,107.615l3.73-.009,0,.519-1.564,0,.011,4.28h-.6l-.011-4.279-1.563,0Z" transform="translate(-1118.363 4426.593)" fill="#fff"/>
    <path id="Tracciato_93" data-name="Tracciato 93" d="M44.472,107.592l.732,0,1.622,4.794-.625,0-.415-1.219-1.907,0-.409,1.222-.633,0Zm-.434,3.106,1.594,0-.8-2.363Z" transform="translate(-1123.852 4426.603)" fill="#fff"/>
    <path id="Tracciato_94" data-name="Tracciato 94" d="M55.769,111.84l2.136-.006v.526l-2.738.007-.012-4.8.6,0Z" transform="translate(-1131.225 4426.615)" fill="#fff"/>
    <path id="Tracciato_95" data-name="Tracciato 95" d="M66.764,107.529l3.73-.01,0,.519-1.564,0,.011,4.28h-.6l-.011-4.279-1.563,0Z" transform="translate(-1138.173 4426.644)" fill="#fff"/>
    <path id="Tracciato_96" data-name="Tracciato 96" d="M77.57,107.507l.732,0,1.622,4.793-.625,0-.415-1.219-1.907,0-.409,1.222-.633,0Zm-.434,3.106,1.594,0-.8-2.363Z" transform="translate(-1143.663 4426.654)" fill="#fff"/>
    <rect id="Rettangolo_208" data-name="Rettangolo 208" width="0.603" height="4.798" transform="translate(-1062.783 4534.151) rotate(-0.153)" fill="#fff"/>
    <path id="Tracciato_97" data-name="Tracciato 97" d="M94.186,111.742l2.136-.006v.526l-2.738.007-.012-4.8h.6Z" transform="translate(-1154.22 4426.675)" fill="#fff"/>
    <path id="Tracciato_98" data-name="Tracciato 98" d="M103.6,107.231a1.934,1.934,0,0,1,1.508.634,3.268,3.268,0,0,1,.014,3.7,1.945,1.945,0,0,1-1.509.633,1.923,1.923,0,0,1-1.509-.633,3.281,3.281,0,0,1-.009-3.691,1.92,1.92,0,0,1,1.5-.641m0,.542a1.267,1.267,0,0,0-1.059.506,2.324,2.324,0,0,0-.385,1.45,2.261,2.261,0,0,0,.393,1.433,1.282,1.282,0,0,0,1.061.485,1.3,1.3,0,0,0,1.063-.491,2.249,2.249,0,0,0,.389-1.435,2.315,2.315,0,0,0-.4-1.448,1.278,1.278,0,0,0-1.065-.5" transform="translate(-1158.983 4426.818)" fill="#fff"/>
    <path id="Tracciato_99" data-name="Tracciato 99" d="M118.084,108.777a1.418,1.418,0,0,1-.314.962,1.531,1.531,0,0,1-.933.476l1.378,1.987-.778,0-1.249-1.957-.839,0,.005,1.96h-.6l-.012-4.8,1.67,0a1.79,1.79,0,0,1,1.24.386,1.268,1.268,0,0,1,.434.983m-1.714,1.05a1.155,1.155,0,0,0,.82-.266.912.912,0,0,0,.276-.695.9.9,0,0,0-.272-.686,1.1,1.1,0,0,0-.782-.253l-1.068,0,0,1.9Z" transform="translate(-1166.889 4426.711)" fill="#fff"/>
    <path id="Tracciato_100" data-name="Tracciato 100" d="M126.366,107.377l2.952-.008v.519l-2.349.006,0,1.609,2.212-.006,0,.511-2.212.006,0,1.633,2.349-.006v.526l-2.951.008Z" transform="translate(-1173.848 4426.735)" fill="#fff"/>
    <path id="Tracciato_101" data-name="Tracciato 101" d="M138.455,107.352a2.4,2.4,0,1,1,.013,4.8l-1.411,0-.012-4.8Zm-.8,4.274.809,0a1.621,1.621,0,0,0,1.272-.534,1.947,1.947,0,0,0,.469-1.347,1.906,1.906,0,0,0-.481-1.337,1.634,1.634,0,0,0-1.271-.519l-.808,0Z" transform="translate(-1180.24 4426.745)" fill="#fff"/>
    <path id="Tracciato_102" data-name="Tracciato 102" d="M152.338,107.308l3.73-.01,0,.519-1.564,0,.011,4.28h-.6l-.011-4.279-1.563,0Z" transform="translate(-1189.393 4426.778)" fill="#fff"/>
    <path id="Tracciato_103" data-name="Tracciato 103" d="M164.265,107.277l.006,2.113,2.357-.006-.006-2.113.6,0,.012,4.8-.6,0-.005-2.167-2.357.006.005,2.166-.6,0-.012-4.8Z" transform="translate(-1196.172 4426.795)" fill="#fff"/>
    <rect id="Rettangolo_209" data-name="Rettangolo 209" width="0.603" height="4.798" transform="translate(-1027.407 4534.06) rotate(-0.153)" fill="#fff"/>
    <path id="Tracciato_104" data-name="Tracciato 104" d="M182.371,107.229l2.39,3.846-.01-3.852.6,0,.012,4.8-.671,0-2.428-3.9.01,3.9-.611,0-.012-4.8Z" transform="translate(-1206.94 4426.823)" fill="#fff"/>
    <path id="Tracciato_105" data-name="Tracciato 105" d="M195.317,107.2l.006,2.22,2.137-2.225.831,0-2.092,2.164,2.234,2.634-.778,0-1.86-2.215-.471.489,0,1.731-.61,0-.013-4.8Z" transform="translate(-1214.753 4426.843)" fill="#fff"/>
    <rect id="Rettangolo_210" data-name="Rettangolo 210" width="0.603" height="4.798" transform="translate(-1015.401 4534.029) rotate(-0.153)" fill="#fff"/>
    <path id="Tracciato_106" data-name="Tracciato 106" d="M212.278,107.152l2.39,3.846-.01-3.852.6,0,.012,4.8-.671,0-2.428-3.9.01,3.9-.611,0-.012-4.8Z" transform="translate(-1224.841 4426.87)" fill="#fff"/>
    <path id="Tracciato_107" data-name="Tracciato 107" d="M227.031,110.98a1.225,1.225,0,0,1-1.241.911,1.928,1.928,0,0,1-1.516-.668,2.639,2.639,0,0,1-.6-1.807,2.5,2.5,0,0,1,.64-1.809,2.135,2.135,0,0,1,1.6-.675,2.046,2.046,0,0,1,.988.226,1.955,1.955,0,0,1,.731.731l-.579.2a1.457,1.457,0,0,0-1.161-.615,1.426,1.426,0,0,0-1.123.544,2.094,2.094,0,0,0-.458,1.409,2.258,2.258,0,0,0,.4,1.391,1.268,1.268,0,0,0,1.069.523,1.144,1.144,0,0,0,.884-.369,1.551,1.551,0,0,0,.333-1.084v-.015l-1.205-.043v-.4l1.792,0,.006,2.372h-.488Z" transform="translate(-1232.094 4426.996)" fill="#fff"/>
    <path id="Tracciato_109" data-name="Tracciato 109" d="M-.213,0h193.9V48.1H-.213Z" transform="translate(-1098 4491)" fill="none"/>
  </g>
</svg>
