<svg xmlns="http://www.w3.org/2000/svg" width="343" height="77.5" viewBox="0 0 343 77.5">
  <g id="Raggruppa_165" data-name="Raggruppa 165" transform="translate(-56.449 -366.209)">
    <g id="Raggruppa_164" data-name="Raggruppa 164" transform="translate(331.177 382.13)">
      <path id="Tracciato_48" data-name="Tracciato 48" d="M466.577,393.841l-.328.5.328-.5Zm.466-4.582c-2.689-.385-4.86-.677-4.86-.677h-.047a17.294,17.294,0,0,0-14.31,6.814v-6.632h-5.316v44.93h5.316V413.518c0-6.408,1.344-11.219,3.905-14.508,2.736-3.49,5.919-5.139,9.772-5.152h.041c1.68.188,2.943.332,3.782.436.421.05,1.457.218,1.457.218l.967.171v-5.319Z" transform="translate(-442.509 -388.582)" fill="#fe5000"/>
    </g>
    <path id="Tracciato_49" data-name="Tracciato 49" d="M501.293,404.1l20.125-21.794-6.659-.007-26.2,28.389V366.214h-5.4v61.026h5.4v-9.446l9.419-10.173,17.824,19.62h6.7Z" transform="translate(-123.053 -0.001)" fill="#fe5000"/>
    <path id="Tracciato_50" data-name="Tracciato 50" d="M89.1,428.479H64.949a3.64,3.64,0,0,1-2.189-.982,2.924,2.924,0,0,1-.687-2.09l0-36.485H56.449v36.442a7.754,7.754,0,0,0,3.254,6.713,9.378,9.378,0,0,0,5.561,1.715H89.92v-5.309Z" transform="translate(0 -6.55)" fill="#fe5000"/>
    <path id="Tracciato_51" data-name="Tracciato 51" d="M197.339,382.314l-.2.536-14.052,38.013a4.192,4.192,0,0,1-.63,1.226.7.7,0,0,1-.221.188,4.152,4.152,0,0,1-.8-1.474l-19.76-54.594-5.805.016,20.8,56.986c1.119,3.058,3.028,4.927,5.577,4.927h.027c2.539.01,4.438-1.862,5.561-4.914l15.278-40.917Z" transform="translate(-28.673 0)" fill="#fe5000"/>
    <path id="Tracciato_52" data-name="Tracciato 52" d="M343.437,389.2a5.729,5.729,0,0,0-4.3-1.5c-3.051-.036-5.225,1.765-6.167,4.985L318.32,443.348a3.478,3.478,0,0,1-.432.995c-.141.184-.174.161-.174.164-.017,0-.074.01-.218-.177a3.411,3.411,0,0,1-.445-1.029l-14.585-50.618c-.9-3.216-3.025-5.028-6.023-4.991a5.865,5.865,0,0,0-4.371,1.514,6.13,6.13,0,0,0-1.481,4.438l0,39.789h5.346l0-40.019a1.509,1.509,0,0,1,.174-.848c.084-.108.131-.147.371-.154.117-.037.5.208.811,1.293l14.29,49.613c1.215,4.2,3.249,6.579,6.133,6.585s4.918-2.388,6.137-6.582l14.29-49.617c.322-1.085.7-1.336.838-1.293.245.007.3.05.389.157a1.491,1.491,0,0,1,.174.845l-.007,40.019h5.346l.01-39.829a6.11,6.11,0,0,0-1.457-4.409" transform="translate(-67.521 -6.195)" fill="#fe5000"/>
    <path id="Tracciato_53" data-name="Tracciato 53" d="M412.739,418.65a21.569,21.569,0,0,1-9.346,8.545,16.886,16.886,0,0,1-7.6,1.749q-8.025,0-12.616-5.065-4.421-4.843-4.418-12.967,0-8,4.505-12.933,4.627-5.106,12.528-5.105,8.326,0,12.873,6.126,4.07,5.447,4.077,14.079Zm.07-30.188v7.174a21.316,21.316,0,0,0-17.218-7.935c-6.88-.01-12.468,2.168-16.541,6.528-4.01,4.221-6,9.872-6,16.769-.007,6.787,2.07,12.431,6.23,16.749s9.7,6.5,16.444,6.5h.041a23.48,23.48,0,0,0,17.04-7.366v6.559h5.407V388.463Z" transform="translate(-91.303 -6.198)" fill="#fe5000"/>
    <path id="Tracciato_54" data-name="Tracciato 54" d="M136.712,423.752a15.841,15.841,0,0,1-12.391,5.192q-7.842,0-12.511-5.149-4.5-4.974-4.5-12.883t4.5-12.893q4.707-5.145,12.511-5.145t12.431,5.145q4.5,5.024,4.5,12.893a18.51,18.51,0,0,1-4.539,12.84m4.057-29.391c-4.207-4.438-9.761-6.669-16.444-6.659-6.649-.01-12.19,2.2-16.4,6.612C103.716,398.7,101.6,404.323,101.61,411s2.106,12.29,6.318,16.665c4.211,4.391,9.748,6.6,16.4,6.589h.037c6.663,0,12.18-2.2,16.34-6.569s6.251-9.983,6.244-16.685-2.05-12.3-6.177-16.635" transform="translate(-13.024 -6.198)" fill="#fe5000"/>
    <path id="Tracciato_55" data-name="Tracciato 55" d="M226.289,407.841a16.948,16.948,0,0,1,33.789,0Zm33.146-13.754h0a21.935,21.935,0,0,0-16.163-6.385c-6.649-.007-12.186,2.2-16.4,6.609s-6.324,10.012-6.317,16.689c-.007,6.793,2.143,12.444,6.442,16.762,4.278,4.321,9.909,6.489,16.682,6.489h.04c8.341,0,14.8-2.195,19.167-6.7l.58-.593-3.969-3.779-.57.594a16.159,16.159,0,0,1-6.991,3.949,26.706,26.706,0,0,1-8.217,1.346c-5.151-.007-9.208-1.544-12.364-4.613a17.528,17.528,0,0,1-5.105-11.426h39.136l.167-.6a8.274,8.274,0,0,0,.255-2.188,21.968,21.968,0,0,0-6.375-16.152" transform="translate(-47.326 -6.198)" fill="#fe5000"/>
  </g>
</svg>
